<svg width="24" height="24" viewBox="0 0 24 24" fill="none" xmlns="http://www.w3.org/2000/svg">
<g id="socials-icon/dark/default/Behance">
<g id="Subtract">
<path d="M9.86941 11.6501C9.86941 11.6501 11.714 11.5099 11.714 9.30279C11.714 7.09748 10.4629 6.01036 8.55073 6.01036L2 6V18.1874H8.70307C8.70307 18.1874 12.0546 18.2934 12.0546 14.5312C12.0546 14.5312 12.3008 11.6501 9.86941 11.6501ZM4.43748 7.82811H7.78902C7.78902 7.82811 8.93585 7.847 8.93585 9.33386C8.93585 10.875 7.78902 10.875 7.78902 10.875H4.43748V7.82811ZM8.0937 16.3593H4.43748V12.7031H8.0937C8.0937 12.7031 9.92181 12.722 9.92181 14.5312C9.92181 16.3404 8.35695 16.3593 8.0937 16.3593Z" fill="#222222"/>
<path d="M17.2344 9.04713C12.6562 9.04713 12.6641 13.6174 12.6641 13.6174C12.6641 13.6174 12.3594 18.1877 17.2344 18.1877C17.2344 18.1877 21.5 18.1877 21.5 14.5315H19.0625C19.0625 14.5315 19.0625 16.3596 17.2344 16.3596C17.2344 16.3596 15.4063 16.3596 15.4063 13.9221C15.4063 13.9221 20.2813 13.9221 21.5 13.9221C21.5 12.7033 21.5 9.04713 17.2344 9.04713ZM15.4063 12.7033C15.4063 12.7033 15.3661 10.8752 17.2344 10.8752C19.1021 10.8752 19.0625 12.7033 19.0625 12.7033H15.4063Z" fill="#222222"/>
<path d="M19.6721 7.21885H14.7971V8.43759H19.6721V7.21885Z" fill="#222222"/>
</g>
</g>
</svg>
