<svg width="24" height="24" viewBox="0 0 24 24" fill="none" xmlns="http://www.w3.org/2000/svg">
<g id="socials-icon/dark/default/Dribble">
<g id="Group 1">
<path id="Vector" d="M11.75 21.4771C6.37227 21.4771 2 17.1125 2 11.7424C2 6.36465 6.37227 2 11.75 2C17.1277 2 21.5 6.36465 21.5 11.7348C21.5 17.1049 17.1277 21.4771 11.75 21.4771ZM19.9689 13.0678C19.6871 12.9764 17.3943 12.2984 14.7816 12.7098C15.8709 15.6957 16.3127 18.1332 16.3965 18.6359C18.2703 17.3791 19.6033 15.3834 19.9689 13.0678ZM15.0025 19.4053C14.8807 18.674 14.3932 16.1299 13.2277 13.0982C13.2125 13.1059 13.1896 13.1135 13.1744 13.1135C8.47461 14.7512 6.79121 18.0037 6.63887 18.3084C8.04805 19.4053 9.82285 20.0604 11.75 20.0604C12.9002 20.068 14.0047 19.8318 15.0025 19.4053ZM5.56484 17.3105C5.75527 16.9906 8.04043 13.2125 12.3365 11.8186C12.4432 11.7805 12.5574 11.75 12.6641 11.7195C12.4584 11.2473 12.2299 10.775 11.9861 10.3104C7.82715 11.552 3.79004 11.4986 3.42441 11.491C3.42441 11.5748 3.4168 11.6586 3.4168 11.7424C3.42441 13.8828 4.23184 15.8328 5.56484 17.3105ZM3.59961 10.0437C3.97285 10.0514 7.40059 10.0666 11.3006 9.03066C9.92188 6.57793 8.42891 4.52129 8.21562 4.22422C5.87715 5.32109 4.14043 7.46914 3.59961 10.0437ZM9.8 3.66055C10.0285 3.96523 11.5443 6.02187 12.9078 8.52793C15.8709 7.41582 17.1201 5.74004 17.2725 5.52676C15.8023 4.22422 13.8676 3.43203 11.75 3.43203C11.0797 3.43203 10.4246 3.51582 9.8 3.66055ZM18.1941 6.48652C18.0189 6.72266 16.625 8.5127 13.5477 9.76953C13.7381 10.1656 13.9285 10.5693 14.1037 10.973C14.1646 11.1178 14.2256 11.2625 14.2865 11.3996C17.0592 11.0492 19.809 11.6129 20.0832 11.6662C20.0604 9.70859 19.3596 7.90332 18.1941 6.48652Z" fill="#222222"/>
</g>
</g>
</svg>
