<svg width="262" height="27" viewBox="0 0 262 27" fill="none" xmlns="http://www.w3.org/2000/svg">
<path d="M7.2042 20.438C5.688 20.438 4.39424 20.1008 3.32292 19.4263C2.2516 18.7428 1.42995 17.8132 0.857967 16.6375C0.295068 15.4618 0.00907897 14.1311 0 12.6456C0.00907897 11.1327 0.304147 9.79291 0.885204 8.62633C1.47534 7.45063 2.31061 6.53013 3.39101 5.86481C4.47142 5.19038 5.7561 4.85316 7.24506 4.85316C8.9156 4.85316 10.3274 5.27696 11.4804 6.12456C12.1814 6.63034 12.7354 7.24889 13.1424 7.98019C13.6049 8.81114 13.0238 9.76834 12.1061 10.0178C11.2 10.2642 10.3055 9.69654 9.66484 9.00997C9.52895 8.86433 9.38059 8.73189 9.21974 8.61266C8.62961 8.16607 7.95776 7.94278 7.2042 7.94278C6.35077 7.94278 5.64715 8.14785 5.09333 8.55797C4.53951 8.95899 4.13095 9.51494 3.86766 10.2258C3.60437 10.9367 3.47272 11.7433 3.47272 12.6456C3.47272 14.0491 3.78595 15.1838 4.4124 16.0496C5.03885 16.9154 5.96945 17.3484 7.2042 17.3484C8.07579 17.3484 8.76125 17.1478 9.2606 16.7468C9.40128 16.6359 9.53224 16.5113 9.65346 16.3731C10.2403 15.7042 11.0643 15.1587 11.9326 15.3536C12.9168 15.5745 13.5306 16.6063 13.0062 17.4681C12.5765 18.1742 12.0316 18.7631 11.3715 19.2349C10.2366 20.037 8.8475 20.438 7.2042 20.438Z" fill="#033E37"/>
<path d="M22.5808 20.438C21.11 20.438 19.8253 20.1053 18.7267 19.44C17.6282 18.7747 16.7748 17.8587 16.1665 16.6922C15.5673 15.5165 15.2676 14.1676 15.2676 12.6456C15.2676 11.0962 15.5763 9.73823 16.1937 8.57164C16.8111 7.40506 17.669 6.49367 18.7676 5.83747C19.8662 5.18127 21.1372 4.85316 22.5808 4.85316C24.0607 4.85316 25.3499 5.18582 26.4485 5.85114C27.547 6.51646 28.4004 7.43696 29.0087 8.61266C29.617 9.77924 29.9212 11.1235 29.9212 12.6456C29.9212 14.1767 29.6125 15.5301 28.9951 16.7058C28.3868 17.8724 27.5334 18.7884 26.4348 19.4537C25.3363 20.1099 24.0516 20.438 22.5808 20.438ZM22.5808 17.3484C23.8882 17.3484 24.8596 16.9109 25.4952 16.0359C26.1307 15.161 26.4485 14.0309 26.4485 12.6456C26.4485 11.2147 26.1261 10.0754 25.4815 9.22785C24.8369 8.37114 23.87 7.94278 22.5808 7.94278C21.7001 7.94278 20.9738 8.14329 20.4018 8.5443C19.8389 8.9362 19.4213 9.48759 19.1489 10.1985C18.8766 10.9003 18.7404 11.7159 18.7404 12.6456C18.7404 14.0765 19.0627 15.2203 19.7073 16.077C20.361 16.9246 21.3188 17.3484 22.5808 17.3484Z" fill="#033E37"/>
<path d="M52.226 20.0278C51.3197 20.0278 50.5849 19.2931 50.5849 18.3868V11.0597C50.5849 10.0481 50.3353 9.25975 49.8359 8.69468C49.3366 8.12051 48.6602 7.83342 47.8068 7.83342C47.2802 7.83342 46.8081 7.95646 46.3904 8.20253C45.9728 8.43949 45.6414 8.79494 45.3963 9.26886C45.3283 9.39784 45.2697 9.53383 45.2205 9.67685C45.0367 10.2118 44.4134 10.5731 43.9265 10.2853C43.7061 10.1551 43.5666 9.91866 43.581 9.66308C43.6289 8.81116 43.8527 8.05089 44.2523 7.38228C44.7244 6.59848 45.36 5.98785 46.1589 5.55038C46.9579 5.11291 47.8476 4.89418 48.8282 4.89418C50.4533 4.89418 51.6971 5.38633 52.5596 6.37063C53.4312 7.34582 53.867 8.63089 53.867 10.2258V18.3868C53.867 19.2931 53.1323 20.0278 52.226 20.0278ZM34.5491 20.0278C33.6353 20.0278 32.8945 19.287 32.8945 18.3732V6.71366C32.8945 5.91264 33.5438 5.26329 34.3449 5.26329C35.1459 5.26329 35.7952 5.91264 35.7952 6.71366V9.63876C35.7952 9.75158 35.8867 9.84304 35.9995 9.84304C36.1123 9.84304 36.2038 9.9345 36.2038 10.0473V18.3732C36.2038 19.287 35.463 20.0278 34.5491 20.0278ZM43.3944 20.0278C42.4918 20.0278 41.7601 19.2962 41.7601 18.3936V11.1008C41.7601 10.0709 41.5105 9.26886 41.0111 8.69468C40.5118 8.12051 39.8308 7.83342 38.9683 7.83342C38.1331 7.83342 37.4612 8.12051 36.9528 8.69468C36.7258 8.95571 36.5504 9.25252 36.4266 9.58513C36.2215 10.1361 35.548 10.4978 35.0594 10.1708C34.8554 10.0343 34.7294 9.80474 34.7466 9.55992C34.803 8.75848 35.0345 8.02804 35.4411 7.36861C35.9133 6.60304 36.5488 6.00152 37.3477 5.56405C38.1558 5.11747 39.0591 4.89418 40.0578 4.89418C41.1564 4.89418 42.0734 5.13114 42.8088 5.60506C43.5532 6.06987 44.1071 6.70785 44.4702 7.51899C44.8425 8.32101 45.0286 9.22785 45.0286 10.2395V18.3936C45.0286 19.2962 44.2969 20.0278 43.3944 20.0278Z" fill="#033E37"/>
<path d="M64.4871 20.438C63.0526 20.438 61.8497 20.0962 60.8782 19.4127C59.9068 18.7291 59.1759 17.7995 58.6856 16.6238C58.1954 15.439 57.9502 14.1129 57.9502 12.6456C57.9502 11.16 58.1954 9.82937 58.6856 8.65367C59.1759 7.47797 59.8931 6.55291 60.8374 5.87848C61.7906 5.19494 62.9664 4.85316 64.3646 4.85316C65.7536 4.85316 66.9566 5.19494 67.9735 5.87848C68.9994 6.55291 69.7938 7.47797 70.3567 8.65367C70.9196 9.82025 71.201 11.1509 71.201 12.6456C71.201 14.122 70.9241 15.4481 70.3703 16.6238C69.8165 17.7995 69.0357 18.7291 68.0279 19.4127C67.0202 20.0962 65.8399 20.438 64.4871 20.438ZM58.8422 20.0278C58.0412 20.0278 57.3919 19.3785 57.3919 18.5775V1.99642C57.3919 1.08258 58.1327 0.341772 59.0465 0.341772C59.9604 0.341772 60.7012 1.08258 60.7012 1.99642V9.46104C60.7012 9.57386 60.6097 9.66532 60.4969 9.66532C60.3841 9.66532 60.2926 9.75677 60.2926 9.8696V18.5775C60.2926 19.3785 59.6433 20.0278 58.8422 20.0278ZM63.9832 17.4851C64.8367 17.4851 65.5403 17.2709 66.0941 16.8425C66.6479 16.4142 67.0565 15.8354 67.3198 15.1063C67.5921 14.3681 67.7283 13.5478 67.7283 12.6456C67.7283 11.7524 67.5921 10.9413 67.3198 10.2122C67.0474 9.47392 66.6252 8.89063 66.0533 8.46228C65.4813 8.02481 64.755 7.80608 63.8743 7.80608C63.039 7.80608 62.3581 8.01114 61.8315 8.42127C61.3049 8.82228 60.9145 9.38734 60.6603 10.1165C60.4152 10.8365 60.2926 11.6795 60.2926 12.6456C60.2926 13.6025 60.4152 14.4456 60.6603 15.1747C60.9145 15.9038 61.3095 16.4734 61.8451 16.8835C62.3899 17.2846 63.1026 17.4851 63.9832 17.4851Z" fill="#033E37"/>
<path d="M75.9859 3.02127C75.1516 3.02127 74.4752 2.34493 74.4752 1.51063C74.4752 0.676334 75.1516 0 75.9859 0H76.2467C77.081 0 77.7573 0.676334 77.7573 1.51063C77.7573 2.34493 77.081 3.02127 76.2467 3.02127H75.9859ZM76.1163 20.0278C75.21 20.0278 74.4752 19.2931 74.4752 18.3868V6.90432C74.4752 5.99801 75.21 5.26329 76.1163 5.26329C77.0226 5.26329 77.7573 5.99801 77.7573 6.90432V18.3868C77.7573 19.2931 77.0226 20.0278 76.1163 20.0278Z" fill="#033E37"/>
<path d="M93.6712 20.0278C92.7536 20.0278 92.0097 19.284 92.0097 18.3664V12.919C92.0097 12.4542 91.978 11.9392 91.9144 11.3742C91.8509 10.8091 91.701 10.2668 91.465 9.74734C91.238 9.21873 90.893 8.78582 90.43 8.44861C89.976 8.11139 89.3587 7.94278 88.5779 7.94278C88.1602 7.94278 87.7471 8.01114 87.3386 8.14785C86.93 8.28456 86.5578 8.52152 86.2219 8.85873C85.895 9.18684 85.6317 9.64253 85.432 10.2258C85.3543 10.4491 85.2917 10.6973 85.2442 10.9702C85.1245 11.6588 84.4178 12.1345 83.7754 11.8594C83.4172 11.706 83.1799 11.3534 83.2065 10.9647C83.2753 9.95838 83.5087 9.0331 83.9067 8.18886C84.397 7.1681 85.1142 6.35696 86.0584 5.75544C87.0027 5.14481 88.1648 4.83949 89.5448 4.83949C90.6343 4.83949 91.5331 5.02177 92.2412 5.38633C92.9494 5.75089 93.5123 6.2157 93.9299 6.78076C94.3476 7.34582 94.6563 7.94734 94.856 8.58532C95.0557 9.22329 95.1828 9.82937 95.2373 10.4035C95.3009 10.9686 95.3326 11.4289 95.3326 11.7843V18.3664C95.3326 19.284 94.5888 20.0278 93.6712 20.0278ZM83.4709 20.0278C82.5533 20.0278 81.8095 19.284 81.8095 18.3664V6.72728C81.8095 5.91874 82.4649 5.26329 83.2735 5.26329C84.082 5.26329 84.7374 5.91874 84.7374 6.72728V9.64557C84.7374 9.75463 84.8259 9.84304 84.9349 9.84304C85.044 9.84304 85.1324 9.93145 85.1324 10.0405V18.3664C85.1324 19.284 84.3885 20.0278 83.4709 20.0278Z" fill="#033E37"/>
<path d="M102.999 20.438C101.937 20.438 101.038 20.2375 100.303 19.8365C99.5674 19.4263 99.009 18.8841 98.6277 18.2096C98.2555 17.5352 98.0693 16.7924 98.0693 15.9813C98.0693 15.2704 98.1874 14.6324 98.4234 14.0673C98.6595 13.4932 99.0226 13.001 99.5129 12.5909C100.003 12.1716 100.639 11.8299 101.419 11.5656C102.01 11.3742 102.7 11.201 103.49 11.0461C104.288 10.8911 105.151 10.7499 106.077 10.6223C106.699 10.5313 107.339 10.4363 107.998 10.3373C108.206 10.306 108.303 10.5862 108.121 10.6906C107.994 10.7633 107.835 10.6704 107.828 10.5241C107.789 9.66999 107.564 9.0283 107.153 8.59899C106.69 8.11595 105.909 7.87443 104.811 7.87443C104.148 7.87443 103.508 8.02937 102.89 8.33924C102.728 8.42049 102.579 8.51708 102.443 8.62903C101.767 9.18469 100.923 9.72677 100.088 9.46388C99.2614 9.20352 98.7709 8.31019 99.2208 7.56913C99.5921 6.95773 100.075 6.43063 100.67 5.98785C101.696 5.23139 103.076 4.85316 104.811 4.85316C106.118 4.85316 107.266 5.06734 108.256 5.4957C109.255 5.92405 109.995 6.62582 110.476 7.60101C110.739 8.12051 110.898 8.65367 110.952 9.20051C111.007 9.73823 111.034 10.3261 111.034 10.964V18.5911C111.034 19.3846 110.391 20.0278 109.597 20.0278H109.057C108.562 20.0278 108.161 19.6266 108.161 19.1315V17.3731C108.161 17.1799 108.398 17.0875 108.529 17.2299C108.593 17.2999 108.603 17.4044 108.551 17.4843C107.908 18.4815 107.16 19.22 106.309 19.6997C105.428 20.1919 104.325 20.438 102.999 20.438ZM103.653 17.8132C104.397 17.8132 105.033 17.681 105.56 17.4167C106.086 17.1524 106.504 16.8289 106.812 16.4461C107.13 16.0633 107.344 15.7033 107.452 15.3661C107.625 14.9468 107.72 14.4684 107.738 13.9306C107.76 13.5075 107.772 13.1472 107.777 12.8496C107.779 12.7274 107.897 12.6397 108.014 12.6746C108.201 12.7303 108.182 13.0004 107.99 13.031C107.334 13.1352 106.751 13.2301 106.24 13.3154C105.532 13.4339 104.924 13.5478 104.416 13.6572C103.907 13.7575 103.458 13.8714 103.067 13.999C102.686 14.1357 102.364 14.2952 102.1 14.4775C101.837 14.6597 101.633 14.8694 101.488 15.1063C101.351 15.3433 101.283 15.6213 101.283 15.9403C101.283 16.3048 101.374 16.6284 101.556 16.9109C101.737 17.1843 102.001 17.403 102.346 17.5671C102.7 17.7311 103.135 17.8132 103.653 17.8132Z" fill="#033E37"/>
<path d="M123.2 18.8763C123.2 19.544 122.725 20.1252 122.061 20.1944C121.481 20.2549 120.907 20.2768 120.34 20.2603C119.414 20.242 118.584 20.0734 117.848 19.7544C117.113 19.4263 116.554 18.9114 116.173 18.2096C115.837 17.5716 115.66 16.92 115.642 16.2547C115.624 15.5894 115.615 14.8375 115.615 13.999V2.79625C115.615 1.89369 116.346 1.16202 117.249 1.16202C118.151 1.16202 118.883 1.89369 118.883 2.79625V13.8076C118.883 14.4 118.888 14.9195 118.897 15.3661C118.915 15.8127 119.01 16.1772 119.183 16.4597C119.51 17.0066 120.032 17.3119 120.749 17.3757C121.018 17.3996 121.301 17.4094 121.597 17.4052C122.445 17.393 123.2 18.0284 123.2 18.8763ZM114.237 7.84709C113.524 7.84709 112.945 7.26868 112.945 6.55519C112.945 5.84169 113.524 5.26329 114.237 5.26329H121.908C122.622 5.26329 123.2 5.84169 123.2 6.55519C123.2 7.26868 122.622 7.84709 121.908 7.84709H114.237Z" fill="#033E37"/>
<path d="M128.146 3.02127C127.312 3.02127 126.635 2.34493 126.635 1.51063C126.635 0.676334 127.312 0 128.146 0H128.407C129.241 0 129.917 0.676334 129.917 1.51063C129.917 2.34493 129.241 3.02127 128.407 3.02127H128.146ZM128.276 20.0278C127.37 20.0278 126.635 19.2931 126.635 18.3868V6.90432C126.635 5.99801 127.37 5.26329 128.276 5.26329C129.183 5.26329 129.917 5.99801 129.917 6.90432V18.3868C129.917 19.2931 129.183 20.0278 128.276 20.0278Z" fill="#033E37"/>
<path d="M140.493 20.438C139.022 20.438 137.737 20.1053 136.639 19.44C135.54 18.7747 134.687 17.8587 134.078 16.6922C133.479 15.5165 133.18 14.1676 133.18 12.6456C133.18 11.0962 133.488 9.73823 134.106 8.57164C134.723 7.40506 135.581 6.49367 136.68 5.83747C137.778 5.18127 139.049 4.85316 140.493 4.85316C141.973 4.85316 143.262 5.18582 144.36 5.85114C145.459 6.51646 146.312 7.43696 146.921 8.61266C147.529 9.77924 147.833 11.1235 147.833 12.6456C147.833 14.1767 147.524 15.5301 146.907 16.7058C146.299 17.8724 145.445 18.7884 144.347 19.4537C143.248 20.1099 141.964 20.438 140.493 20.438ZM140.493 17.3484C141.8 17.3484 142.772 16.9109 143.407 16.0359C144.043 15.161 144.36 14.0309 144.36 12.6456C144.36 11.2147 144.038 10.0754 143.393 9.22785C142.749 8.37114 141.782 7.94278 140.493 7.94278C139.612 7.94278 138.886 8.14329 138.314 8.5443C137.751 8.9362 137.333 9.48759 137.061 10.1985C136.788 10.9003 136.652 11.7159 136.652 12.6456C136.652 14.0765 136.975 15.2203 137.619 16.077C138.273 16.9246 139.231 17.3484 140.493 17.3484Z" fill="#033E37"/>
<path d="M162.668 20.0278C161.751 20.0278 161.007 19.284 161.007 18.3664V12.919C161.007 12.4542 160.975 11.9392 160.911 11.3742C160.848 10.8091 160.698 10.2668 160.462 9.74734C160.235 9.21873 159.89 8.78582 159.427 8.44861C158.973 8.11139 158.356 7.94278 157.575 7.94278C157.157 7.94278 156.744 8.01114 156.336 8.14785C155.927 8.28456 155.555 8.52152 155.219 8.85873C154.892 9.18684 154.629 9.64253 154.429 10.2258C154.351 10.4491 154.289 10.6973 154.241 10.9702C154.121 11.6588 153.415 12.1345 152.772 11.8594C152.414 11.706 152.177 11.3534 152.203 10.9647C152.272 9.95838 152.506 9.0331 152.904 8.18886C153.394 7.1681 154.111 6.35696 155.055 5.75544C156 5.14481 157.162 4.83949 158.542 4.83949C159.631 4.83949 160.53 5.02177 161.238 5.38633C161.946 5.75089 162.509 6.2157 162.927 6.78076C163.345 7.34582 163.653 7.94734 163.853 8.58532C164.053 9.22329 164.18 9.82937 164.234 10.4035C164.298 10.9686 164.33 11.4289 164.33 11.7843V18.3664C164.33 19.284 163.586 20.0278 162.668 20.0278ZM152.468 20.0278C151.55 20.0278 150.806 19.284 150.806 18.3664V6.72728C150.806 5.91874 151.462 5.26329 152.27 5.26329C153.079 5.26329 153.734 5.91874 153.734 6.72728V9.64557C153.734 9.75463 153.823 9.84304 153.932 9.84304C154.041 9.84304 154.129 9.93145 154.129 10.0405V18.3664C154.129 19.284 153.385 20.0278 152.468 20.0278Z" fill="#033E37"/>
<path d="M170.11 20.0278C169.181 20.0278 168.428 19.2684 168.428 18.3395C168.428 17.4106 169.181 16.6511 170.11 16.6511C171.039 16.6511 171.792 17.4106 171.792 18.3395C171.792 19.2684 171.039 20.0278 170.11 20.0278Z" fill="#033E37"/>
<path d="M182.052 20.438C180.7 20.438 179.519 20.0962 178.512 19.4127C177.504 18.7291 176.723 17.7995 176.169 16.6238C175.615 15.4481 175.339 14.122 175.339 12.6456C175.339 11.1509 175.615 9.82025 176.169 8.65367C176.732 7.47797 177.527 6.55291 178.552 5.87848C179.578 5.19494 180.786 4.85316 182.175 4.85316C183.573 4.85316 184.744 5.19494 185.689 5.87848C186.642 6.55291 187.364 7.47797 187.854 8.65367C188.344 9.82937 188.589 11.16 188.589 12.6456C188.589 14.1129 188.344 15.439 187.854 16.6238C187.364 17.7995 186.633 18.7291 185.661 19.4127C184.69 20.0962 183.487 20.438 182.052 20.438ZM182.556 17.4851C183.437 17.4851 184.145 17.2846 184.681 16.8835C185.226 16.4734 185.62 15.9038 185.866 15.1747C186.12 14.4456 186.247 13.6025 186.247 12.6456C186.247 11.6795 186.12 10.8365 185.866 10.1165C185.62 9.38734 185.235 8.82228 184.708 8.42127C184.181 8.01114 183.501 7.80608 182.665 7.80608C181.785 7.80608 181.058 8.02481 180.486 8.46228C179.914 8.89063 179.492 9.47392 179.22 10.2122C178.947 10.9413 178.811 11.7524 178.811 12.6456C178.811 13.5478 178.943 14.3681 179.206 15.1063C179.479 15.8354 179.892 16.4142 180.445 16.8425C180.999 17.2709 181.703 17.4851 182.556 17.4851ZM187.697 20.0278C186.896 20.0278 186.247 19.3785 186.247 18.5775V9.86959C186.247 9.75677 186.155 9.66532 186.043 9.66532C185.93 9.66532 185.838 9.57386 185.838 9.46104V1.99642C185.838 1.08258 186.579 0.341772 187.493 0.341772C188.407 0.341772 189.148 1.08258 189.148 1.99642V18.5775C189.148 19.3785 188.498 20.0278 187.697 20.0278Z" fill="#033E37"/>
<path d="M199.653 20.438C198.164 20.438 196.856 20.1144 195.731 19.4673C194.605 18.8203 193.724 17.9225 193.089 16.7742C192.462 15.6258 192.149 14.3043 192.149 12.8096C192.149 11.1965 192.458 9.79747 193.075 8.61266C193.692 7.41873 194.55 6.49367 195.649 5.83747C196.747 5.18127 198.018 4.85316 199.462 4.85316C200.987 4.85316 202.281 5.21316 203.343 5.93316C204.415 6.64405 205.209 7.65114 205.727 8.95443C206.085 9.8562 206.288 10.8692 206.338 11.9935C206.377 12.8768 205.627 13.5615 204.743 13.5615H204.26C203.596 13.5615 203.057 13.0229 203.057 12.3585C203.048 10.7544 202.767 9.58329 202.213 8.84506C201.659 8.10683 200.788 7.73772 199.598 7.73772C198.255 7.73772 197.256 8.15696 196.602 8.99544C195.948 9.82481 195.622 11.0415 195.622 12.6456C195.622 14.1403 195.948 15.2977 196.602 16.118C197.256 16.9382 198.209 17.3484 199.462 17.3484C200.27 17.3484 200.965 17.1706 201.546 16.8152C201.724 16.7049 201.89 16.5799 202.044 16.4404C202.675 15.8673 203.514 15.4272 204.329 15.6749C205.302 15.9701 205.82 17.0659 205.188 17.861C204.728 18.4387 204.177 18.9286 203.534 19.3306C202.363 20.0689 201.069 20.438 199.653 20.438ZM195.831 13.5615C195.144 13.5615 194.587 13.0045 194.587 12.3175C194.587 11.6304 195.144 11.0734 195.831 11.0734H203.461C204.148 11.0734 204.705 11.6304 204.705 12.3175C204.705 13.0045 204.148 13.5615 203.461 13.5615H195.831Z" fill="#033E37"/>
<path d="M215.03 20.438C213.214 20.438 211.739 20.0278 210.604 19.2076C209.94 18.7282 209.429 18.1351 209.07 17.4284C208.628 16.5596 209.319 15.627 210.283 15.4777C211.187 15.3375 212.001 15.9875 212.649 16.6334C212.764 16.748 212.89 16.8542 213.028 16.9519C213.618 17.3711 214.362 17.5808 215.261 17.5808C216.051 17.5808 216.659 17.4258 217.086 17.1159C217.522 16.797 217.74 16.364 217.74 15.8172C217.74 15.48 217.658 15.2111 217.495 15.0106C217.34 14.801 216.995 14.6005 216.46 14.4091C215.924 14.2177 215.102 13.9762 213.995 13.6846C212.76 13.3565 211.779 13.0056 211.053 12.6319C210.327 12.2491 209.805 11.798 209.487 11.2785C209.169 10.759 209.01 10.1301 209.01 9.3919C209.01 8.47139 209.251 7.66937 209.732 6.98582C210.213 6.30228 210.885 5.77823 211.748 5.41367C212.61 5.04 213.627 4.85316 214.798 4.85316C215.942 4.85316 216.954 5.03089 217.835 5.38633C218.725 5.74177 219.442 6.24759 219.987 6.9038C220.186 7.14348 220.357 7.39837 220.5 7.66846C220.927 8.47222 220.283 9.34189 219.388 9.50268C218.44 9.67289 217.559 8.90029 216.786 8.32557C216.305 7.96101 215.661 7.75595 214.853 7.71038C214.081 7.66481 213.459 7.78329 212.987 8.06582C212.515 8.33924 212.279 8.72658 212.279 9.22785C212.279 9.51038 212.374 9.7519 212.565 9.9524C212.755 10.1529 213.137 10.3534 213.709 10.5539C214.29 10.7544 215.152 11.0005 216.296 11.2922C217.467 11.5929 218.403 11.9392 219.102 12.3311C219.81 12.7139 220.318 13.1742 220.627 13.7119C220.945 14.2496 221.104 14.9013 221.104 15.6668C221.104 17.1524 220.563 18.319 219.483 19.1666C218.412 20.0142 216.927 20.438 215.03 20.438Z" fill="#033E37"/>
<path d="M225.869 3.02127C225.035 3.02127 224.359 2.34493 224.359 1.51063C224.359 0.676334 225.035 0 225.869 0H226.13C226.965 0 227.641 0.676334 227.641 1.51063C227.641 2.34493 226.965 3.02127 226.13 3.02127H225.869ZM226 20.0278C225.094 20.0278 224.359 19.2931 224.359 18.3868V6.90432C224.359 5.998 225.094 5.26329 226 5.26329C226.906 5.26329 227.641 5.998 227.641 6.90432V18.3868C227.641 19.2931 226.906 20.0278 226 20.0278Z" fill="#033E37"/>
<path d="M237.903 27C237.086 27 236.301 26.8724 235.547 26.6172C234.803 26.362 234.131 25.9929 233.532 25.5099C233.392 25.3999 233.259 25.2845 233.132 25.1636C232.442 24.5089 232.776 23.4315 233.628 23.0078C234.437 22.6054 235.402 23.0061 236.197 23.4354C236.221 23.4482 236.245 23.4607 236.269 23.4729C236.786 23.7372 237.336 23.8694 237.917 23.8694C238.598 23.8694 239.206 23.7463 239.742 23.5003C240.277 23.2633 240.69 22.9078 240.981 22.4339C241.28 21.9691 241.421 21.3858 241.403 20.684V16.6914C241.403 16.5785 241.494 16.4871 241.607 16.4871C241.72 16.4871 241.812 16.3956 241.812 16.2828V6.70004C241.812 5.90654 242.455 5.26329 243.248 5.26329C244.042 5.26329 244.685 5.90654 244.685 6.70004V20.7387C244.685 21.1124 244.667 21.4678 244.631 21.8051C244.603 22.1514 244.553 22.4886 244.481 22.8167C244.263 23.7737 243.845 24.5575 243.228 25.1681C242.611 25.7878 241.843 26.2481 240.926 26.5489C240.018 26.8496 239.011 27 237.903 27ZM237.617 20.438C236.264 20.438 235.084 20.0962 234.076 19.4127C233.068 18.7291 232.288 17.7995 231.734 16.6238C231.18 15.4481 230.903 14.122 230.903 12.6456C230.903 11.1509 231.18 9.82025 231.734 8.65367C232.297 7.47797 233.091 6.55291 234.117 5.87848C235.143 5.19494 236.351 4.85316 237.74 4.85316C239.138 4.85316 240.309 5.19494 241.253 5.87848C242.207 6.55291 242.928 7.47797 243.419 8.65367C243.909 9.82937 244.154 11.16 244.154 12.6456C244.154 14.1129 243.909 15.439 243.419 16.6238C242.928 17.7995 242.197 18.7291 241.226 19.4127C240.255 20.0962 239.052 20.438 237.617 20.438ZM238.121 17.4851C239.002 17.4851 239.71 17.2846 240.245 16.8835C240.79 16.4734 241.185 15.9038 241.43 15.1747C241.684 14.4456 241.812 13.6025 241.812 12.6456C241.812 11.6795 241.684 10.8365 241.43 10.1165C241.185 9.38734 240.799 8.82228 240.273 8.42127C239.746 8.01114 239.065 7.80608 238.23 7.80608C237.349 7.80608 236.623 8.02481 236.051 8.46228C235.479 8.89063 235.057 9.47392 234.784 10.2122C234.512 10.9413 234.376 11.7524 234.376 12.6456C234.376 13.5478 234.508 14.3681 234.771 15.1063C235.043 15.8354 235.456 16.4142 236.01 16.8425C236.564 17.2709 237.268 17.4851 238.121 17.4851Z" fill="#033E37"/>
<path d="M260.339 20.0278C259.421 20.0278 258.677 19.284 258.677 18.3664V12.919C258.677 12.4542 258.645 11.9392 258.582 11.3742C258.518 10.8091 258.368 10.2668 258.132 9.74734C257.905 9.21873 257.56 8.78582 257.097 8.44861C256.643 8.11139 256.026 7.94278 255.245 7.94278C254.828 7.94278 254.414 8.01114 254.006 8.14785C253.597 8.28456 253.225 8.52152 252.889 8.85873C252.562 9.18684 252.299 9.64253 252.099 10.2258C252.022 10.4491 251.959 10.6973 251.912 10.9702C251.792 11.6588 251.085 12.1345 250.443 11.8594C250.085 11.706 249.847 11.3534 249.874 10.9647C249.943 9.95838 250.176 9.0331 250.574 8.18886C251.064 7.1681 251.782 6.35696 252.726 5.75544C253.67 5.14481 254.832 4.83949 256.212 4.83949C257.302 4.83949 258.2 5.02177 258.909 5.38633C259.617 5.75089 260.18 6.2157 260.597 6.78076C261.015 7.34582 261.324 7.94734 261.523 8.58532C261.723 9.22329 261.85 9.82937 261.905 10.4035C261.968 10.9686 262 11.4289 262 11.7843V18.3664C262 19.284 261.256 20.0278 260.339 20.0278ZM250.138 20.0278C249.221 20.0278 248.477 19.284 248.477 18.3664V6.72728C248.477 5.91874 249.132 5.26329 249.941 5.26329C250.749 5.26329 251.405 5.91874 251.405 6.72728V9.64557C251.405 9.75463 251.493 9.84304 251.602 9.84304C251.711 9.84304 251.8 9.93144 251.8 10.0405V18.3664C251.8 19.284 251.056 20.0278 250.138 20.0278Z" fill="#033E37"/>
</svg>
